<?xml version="1.0" encoding="UTF-8"?>
<svg version="1.1" xmlns="http://www.w3.org/2000/svg" width="1024" height="1024">
<path d="M0 0 C337.92 0 675.84 0 1024 0 C1024 337.92 1024 675.84 1024 1024 C686.08 1024 348.16 1024 0 1024 C0 686.08 0 348.16 0 0 Z " fill="#384EDA" transform="translate(0,0)"/>
<path d="M0 0 C1.05314392 -0.00067474 2.10628784 -0.00134949 3.19134521 -0.00204468 C20.57056278 0.01554596 37.52770214 0.75904239 54.75 3.25 C56.62292725 3.51538574 56.62292725 3.51538574 58.53369141 3.78613281 C91.60082892 8.59001504 133.42469888 14.97214012 155.75390625 42.7421875 C161.39547624 50.81710936 162.04317928 57.81733493 162.01742554 67.48321533 C162.02195665 68.72676969 162.02648776 69.97032405 162.03115618 71.25156188 C162.04161892 74.69624894 162.04312731 78.14072704 162.04076743 81.58541512 C162.04035892 85.30334226 162.0514017 89.02123836 162.06088257 92.739151 C162.07748655 100.02088836 162.08299185 107.30259334 162.08410732 114.58434805 C162.08505814 120.50470016 162.08917014 126.42504159 162.09550858 132.34539032 C162.11311984 149.13723638 162.1223477 165.92905689 162.12084763 182.72091225 C162.12076772 183.62592625 162.1206878 184.53094024 162.12060547 185.46337891 C162.12052371 186.3695003 162.12044195 187.27562169 162.12035771 188.20920131 C162.11954498 202.89082315 162.13867952 217.57234237 162.1668822 232.25393453 C162.19562384 247.33532559 162.20942177 262.41666661 162.20769465 277.49808574 C162.20703116 285.96254609 162.21250541 294.42689887 162.23405075 302.89133453 C162.25227946 310.09888801 162.2565961 317.30628516 162.2430319 324.51385173 C162.23651054 328.18907535 162.23635454 331.86399918 162.2537384 335.53919411 C162.27241716 339.52930527 162.25989297 343.51872508 162.24447632 347.5088501 C162.25476344 348.6623682 162.26505057 349.81588629 162.27564943 351.00435948 C162.1786427 362.38080682 158.53913351 370.98061163 150.75 379.25 C106.84694457 420.63982148 27.69416712 419.6266565 -28.25 418.25 C-36.9543939 417.96106841 -45.5983639 417.22806354 -54.25 416.25 C-55.21228516 416.14816406 -56.17457031 416.04632812 -57.16601562 415.94140625 C-92.17356251 412.17815304 -140.49338513 404.315062 -164.25 375.25 C-170.55812855 366.74027213 -171.54491767 359.32348993 -171.51742554 348.88943481 C-171.52195665 347.63221866 -171.52648776 346.37500252 -171.53115618 345.07968891 C-171.54337374 341.59697867 -171.5431272 338.11436458 -171.54076743 334.63163781 C-171.54035895 330.87284892 -171.55140129 327.11409072 -171.56088257 323.35531616 C-171.57748624 315.99403844 -171.58299181 308.63279275 -171.58410732 301.27149786 C-171.58505801 295.28772281 -171.58916933 289.30395832 -171.59550858 283.32018661 C-171.61311854 266.3521967 -171.62234772 249.38423208 -171.62084763 232.41623296 C-171.62076772 231.50173253 -171.6206878 230.5872321 -171.62060547 229.64501953 C-171.62048283 228.27159275 -171.62048283 228.27159275 -171.62035771 226.87041996 C-171.61954467 212.02901759 -171.63868741 197.18771668 -171.6668822 182.34634365 C-171.69560918 167.10450057 -171.70942263 151.86270698 -171.70769465 136.62083614 C-171.70703073 128.06477821 -171.71252408 119.50882666 -171.73405075 110.95279312 C-171.75226001 103.66869355 -171.75661196 96.38474861 -171.7430319 89.10063614 C-171.73650117 85.38515619 -171.73638858 81.66997292 -171.7537384 77.95452118 C-171.77236438 73.92430034 -171.75991769 69.89476661 -171.74447632 65.86453247 C-171.75990701 64.10800753 -171.75990701 64.10800753 -171.77564943 62.31599724 C-171.67374293 50.2932658 -166.64310468 43.57475692 -158.25 35.25 C-120.43753232 -0.44555347 -48.28959313 0.02810914 0 0 Z " fill="#FDFDFE" transform="translate(516.25,299.75)"/>
<path d="M0 0 C3.8888434 1.25899724 7.30730773 2.6355392 10.875 4.625 C48.79880912 23.7266729 95.84343964 27.45673672 137.6875 27.3125 C138.79296173 27.31067719 139.89842346 27.30885437 141.03738403 27.30697632 C186.20329034 27.18238911 232.63963538 22.82767128 273.96875 3.30859375 C274.9911377 2.82851868 274.9911377 2.82851868 276.03417969 2.33874512 C277.69023854 1.56083326 279.34523415 0.78065855 281 0 C281.16262819 8.85809976 281.28678787 17.71568098 281.3626852 26.57495117 C281.39912414 30.68934078 281.44849786 34.80270461 281.52807617 38.91650391 C281.60447797 42.89124535 281.64606046 46.86500418 281.6641407 50.84042358 C281.67701442 52.35231995 281.70215522 53.86416617 281.7401104 55.37564087 C282.06089321 68.68686261 282.06089321 68.68686261 277.70727539 73.80078125 C275.89784241 75.5090332 275.89784241 75.5090332 274 77 C273.31171616 77.54148682 272.62343231 78.08297363 271.91429138 78.64086914 C246.9294285 97.19564739 208.38961975 102.92343347 178 105 C177.24251465 105.05494629 176.4850293 105.10989258 175.70458984 105.16650391 C123.38260095 108.75774793 52.3473498 110.04762258 8 78 C3.60487898 73.87909797 0.1389903 70.35684233 -0.12025452 64.09565735 C-0.11803391 62.91207138 -0.11581329 61.72848541 -0.11352539 60.5090332 C-0.11367142 59.8551059 -0.11381744 59.20117859 -0.1139679 58.5274353 C-0.11327188 56.36851674 -0.10549408 54.20968472 -0.09765625 52.05078125 C-0.09579096 50.55291287 -0.09436758 49.05504389 -0.09336853 47.55717468 C-0.08955207 43.61654981 -0.0797292 39.67596186 -0.06866455 35.73535156 C-0.05843172 31.71354675 -0.0538669 27.69173596 -0.04882812 23.66992188 C-0.03810616 15.77993099 -0.02104017 7.88997009 0 0 Z " fill="#384DDA" transform="translate(371,500)"/>
<path d="M0 0 C1.638479 0.79337769 1.638479 0.79337769 3.31005859 1.6027832 C11.61425074 5.59020222 19.8436866 9.35184333 28.625 12.1875 C29.63006592 12.51645264 30.63513184 12.84540527 31.6706543 13.18432617 C48.39212724 18.50165284 65.64941995 21.57582163 83 24 C83.6914209 24.09909668 84.3828418 24.19819336 85.09521484 24.30029297 C85.76891113 24.39584473 86.44260742 24.49139648 87.13671875 24.58984375 C87.71768311 24.67226318 88.29864746 24.75468262 88.8972168 24.83959961 C105.70482992 26.99281602 122.51696873 27.20385648 139.4375 27.1875 C140.4969281 27.18722809 141.5563562 27.18695618 142.64788818 27.18667603 C158.51909008 27.16795751 174.21918024 26.83920345 190 25 C191.38251953 24.84724609 191.38251953 24.84724609 192.79296875 24.69140625 C223.72759244 21.19669981 253.15992695 14.03482999 281 0 C281.16262819 8.85809976 281.28678787 17.71568098 281.3626852 26.57495117 C281.39912414 30.68934078 281.44849786 34.80270461 281.52807617 38.91650391 C281.60447797 42.89124535 281.64606046 46.86500418 281.6641407 50.84042358 C281.67701442 52.35231995 281.70215522 53.86416617 281.7401104 55.37564087 C282.06092456 68.68816338 282.06092456 68.68816338 277.63818359 73.84936523 C239.94004694 109.2485162 166.52048626 106.35784278 118.65527344 104.87548828 C84.41766095 103.55930396 28.89164836 99.91426322 3.19921875 72.73828125 C0.2233693 68.42475354 -0.24680193 64.53870519 -0.22705078 59.3737793 C-0.22734283 58.72931351 -0.22763489 58.08484772 -0.22793579 57.42085266 C-0.22655005 55.30516779 -0.21102507 53.18984158 -0.1953125 51.07421875 C-0.19157967 49.60163058 -0.18873397 48.12903991 -0.18673706 46.65644836 C-0.17912183 42.79142328 -0.15949163 38.92654987 -0.1373291 35.06158447 C-0.11682508 31.11334281 -0.10772562 27.1650765 -0.09765625 23.21679688 C-0.0762436 15.47779563 -0.04213333 7.73891912 0 0 Z " fill="#384DDA" transform="translate(371,397)"/>
<path d="M0 0 C1.94873013 0.97271698 3.89606918 1.94658822 5.83325195 2.94213867 C26.21672592 13.3833466 47.55406773 18.90219859 70 23 C70.82999512 23.15452637 71.65999023 23.30905273 72.51513672 23.46826172 C110.07529735 30.29808025 151.1202084 30.39142218 189 26 C190.1019873 25.87641113 191.20397461 25.75282227 192.33935547 25.62548828 C223.43791235 22.01446655 253.12249135 14.32349714 281 0 C281.1780279 7.40116261 281.30030009 14.80176984 281.38452148 22.20458984 C281.4196435 24.72075026 281.46735304 27.23676863 281.52807617 29.75244141 C281.61335111 33.3769846 281.65277338 36.99963394 281.68359375 40.625 C281.71972275 41.74302002 281.75585175 42.86104004 281.79307556 44.01293945 C281.79591512 49.70849127 281.4258742 53.21959233 277.64526367 57.6328125 C261.69020615 73.48583178 235.08651423 78.47744333 214 83 C212.6262996 83.30988481 211.25260133 83.6197791 209.87890625 83.9296875 C205.93471214 84.75334052 201.98419502 85.41112768 198 86 C197.13938965 86.13535156 196.2787793 86.27070312 195.39208984 86.41015625 C159.2911846 91.84456952 120.07529187 91.410139 84 86 C82.98292969 85.85546387 81.96585937 85.71092773 80.91796875 85.56201172 C55.86412096 81.93177671 20.474769 76.20520166 3 56 C2.20616158 55.10018402 2.20616158 55.10018402 1.39628601 54.18218994 C-0.3204464 51.49918934 -0.36363474 49.93917134 -0.34057617 46.77246094 C-0.34034958 45.73168396 -0.34012299 44.69090698 -0.33988953 43.61859131 C-0.32440567 42.50179993 -0.30892181 41.38500854 -0.29296875 40.234375 C-0.28872391 39.08584045 -0.28447906 37.93730591 -0.28010559 36.75396729 C-0.26331333 33.0857397 -0.22565898 29.41806153 -0.1875 25.75 C-0.17245392 23.26302877 -0.15876539 20.77604892 -0.14648438 18.2890625 C-0.11340796 12.19252088 -0.06320256 6.09629969 0 0 Z " fill="#384DDA" transform="translate(371,603)"/>
<path d="M0 0 C2.76134999 2.69560356 3.78077131 4.10315538 4.6875 7.8125 C3.45376995 13.53252115 -0.52437882 17.27219459 -5.23876953 20.5625 C-10.9849475 24.01278512 -16.68733263 26.75513039 -23 29 C-23.94149902 29.33612305 -24.88299805 29.67224609 -25.85302734 30.01855469 C-93.64485041 53.38892289 -192.3170489 54.7478412 -258.45703125 23.359375 C-271.16077394 16.6248608 -271.16077394 16.6248608 -274 10 C-274.3035651 6.58489263 -273.63425908 4.80283847 -271.515625 2.12109375 C-247.36692518 -21.79360704 -199.44604801 -25.23305931 -167.6875 -27.125 C-166.9911142 -27.16702545 -166.29472839 -27.2090509 -165.57723999 -27.25234985 C-117.16059542 -30.1106679 -38.94354737 -34.52200924 0 0 Z " fill="#384DDA" transform="translate(646,354)"/>
<path d="M0 0 C6.36812971 5.25247662 12.16401009 11.02930705 17.98413086 16.87060547 C19.07853052 17.96528763 20.17315127 19.05974878 21.26797485 20.15400696 C24.22218814 23.10793473 27.17331998 26.06492341 30.12388682 29.02249289 C33.21438163 32.11926232 36.30773104 35.21317768 39.40077209 38.30740356 C45.24972506 44.15945777 51.09612542 50.01405518 56.94160134 55.8695823 C64.84620337 63.78747928 72.75476625 71.70141802 80.66310215 79.61558533 C93.11196409 92.0738346 105.55554629 104.53734377 118 117 C118.495 67.5 118.495 67.5 119 17 C127.58 17 136.16 17 145 17 C145.06772039 34.64585013 145.12298372 52.29158938 145.15543652 69.93753338 C145.17090541 78.13084757 145.19199532 86.32407529 145.22631836 94.51733398 C145.25622007 101.65858178 145.27557484 108.79976696 145.28226548 115.94107562 C145.28617645 119.72236401 145.29536811 123.50347324 145.31719017 127.28470421 C145.33756761 130.84449124 145.34383133 134.40402546 145.33932304 137.96386528 C145.34054059 139.89166362 145.3566762 141.81943448 145.3732605 143.74716187 C145.36913651 144.89836014 145.36501251 146.04955841 145.36076355 147.23564148 C145.36352893 148.23394328 145.36629431 149.23224508 145.36914349 150.26079845 C144.76308544 154.75800672 142.79347796 157.30328764 139.4375 160.25 C135.86061016 162.81802348 134.07538154 163.12436477 129.71029663 163.12025452 C128.58846481 163.12162918 127.466633 163.12300385 126.31080627 163.12442017 C125.0743486 163.12082489 123.83789093 163.11722961 122.56396484 163.11352539 C121.26644791 163.11367142 119.96893097 163.11381744 118.63209534 163.1139679 C115.06826408 163.1142555 111.50446629 163.10836475 107.94064283 163.10139394 C104.21837501 163.09515425 100.49610647 163.09455611 96.77383423 163.09336853 C89.72257432 163.09025704 82.67132987 163.08204609 75.62007678 163.07201904 C67.59358307 163.06085227 59.56708863 163.05534603 51.54058909 163.05032361 C35.02704892 163.03986333 18.51353003 163.0215201 2 163 C2 154.42 2 145.84 2 137 C33.68 137 65.36 137 98 137 C98 136.34 98 135.68 98 135 C97.43840054 134.76344004 96.87680107 134.52688007 96.29818344 134.28315163 C93.46181495 132.69951353 91.52520406 130.77081563 89.22906494 128.46957397 C88.76420583 128.00642371 88.29934671 127.54327344 87.82040095 127.06608832 C86.26642721 125.51540466 84.71970248 123.95768887 83.17285156 122.39990234 C82.05940486 121.28589142 80.94551742 120.17232085 79.83122253 119.05915833 C76.80846597 116.03697586 73.79191794 113.00866414 70.77643681 109.97922468 C67.62363764 106.81392779 64.46517841 103.65428918 61.30731201 100.49404907 C55.32875506 94.50927455 49.35531489 88.51941977 43.3836906 82.52772868 C36.58477111 75.70645886 29.78017555 68.89086337 22.97509432 62.07574153 C8.97706563 48.05680455 -5.01381006 34.03074745 -19 20 C-18.03966763 18.8742256 -17.07857377 17.74910076 -16.11715698 16.62425232 C-15.58202925 15.99762916 -15.04690151 15.37100599 -14.49555779 14.72539425 C-12.91677272 12.9039824 -11.28338127 11.16824473 -9.5703125 9.47265625 C-9.003125 8.90869141 -8.4359375 8.34472656 -7.8515625 7.76367188 C-7.28179688 7.20228516 -6.71203125 6.64089844 -6.125 6.0625 C-5.23554687 5.17981445 -5.23554687 5.17981445 -4.328125 4.27929688 C-2.88773534 2.85052326 -1.4442033 1.42491868 0 0 Z " fill="#FEFEFE" transform="translate(728,704)"/>
<path d="M0 0 C1.13866013 -0.00137466 2.27732025 -0.00274933 3.45048523 -0.00416565 C4.70564438 -0.00057037 5.96080353 0.0030249 7.2539978 0.00672913 C9.22953392 0.00651009 9.22953392 0.00651009 11.24497986 0.00628662 C14.86252821 0.00599901 18.48004358 0.01188993 22.09758425 0.01886058 C25.87590653 0.02510009 29.65422951 0.02569839 33.43255615 0.02688599 C40.59006385 0.02999753 47.74755633 0.03820855 54.90505731 0.04823548 C63.05246774 0.05940208 71.19987888 0.06490845 79.34729505 0.06993091 C96.10966332 0.0803913 112.87201062 0.0987346 129.6343689 0.12025452 C129.6343689 8.70025452 129.6343689 17.28025452 129.6343689 26.12025452 C80.6293689 26.61525452 80.6293689 26.61525452 30.6343689 27.12025452 C69.2443689 65.73025452 107.8543689 104.34025452 147.6343689 144.12025452 C145.90807043 147.57285144 144.80211417 149.19264052 142.1578064 151.79212952 C141.4874939 152.4559967 140.8171814 153.11986389 140.1265564 153.80384827 C139.07854858 154.82671936 139.07854858 154.82671936 138.0093689 155.87025452 C137.30296265 156.56763733 136.5965564 157.26502014 135.8687439 157.98353577 C134.12838186 159.7003794 132.38351909 161.41237284 130.6343689 163.12025452 C126.94442055 161.57192639 124.59974179 159.33227669 121.7875061 156.51390076 C121.31447988 156.04258339 120.84145366 155.57126601 120.35409331 155.0856663 C118.77248094 153.50734454 117.1981166 151.92198774 115.62362671 150.33656311 C114.49047581 149.20284801 113.35688421 148.06957324 112.22288513 146.93670654 C109.14641154 143.86080709 106.07614616 140.77877731 103.00694752 137.69562101 C99.79809352 134.47427002 96.58358017 131.25857662 93.36965942 128.0422821 C87.28485483 121.95125972 81.20516674 115.85515673 75.1272943 109.757218 C66.91372292 101.51711846 58.69228309 93.28487757 50.47127724 85.0521965 C37.51919355 72.08130319 24.57766479 59.09993069 11.6343689 46.12025452 C11.3043689 78.46025452 10.9743689 110.80025452 10.6343689 144.12025452 C2.0543689 144.12025452 -6.5256311 144.12025452 -15.3656311 144.12025452 C-15.43337463 126.88282636 -15.4886283 109.64551195 -15.52106762 92.40798759 C-15.53653068 84.40415045 -15.55760945 76.40040195 -15.59194946 68.3966217 C-15.62186903 61.41980337 -15.64121018 54.44304923 -15.64789659 47.46616852 C-15.65180453 43.77259569 -15.66097692 40.07920652 -15.68282127 36.3856926 C-15.7070203 32.26050957 -15.70759946 28.13564502 -15.70620728 24.01039124 C-15.7169931 22.78831467 -15.72777893 21.5662381 -15.7388916 20.30712891 C-15.7007469 9.87993255 -15.7007469 9.87993255 -12.3656311 5.12025452 C-8.08165131 1.25422397 -5.70391941 -0.00529121 0 0 Z " fill="#FEFEFE" transform="translate(165.36563110351563,151.87974548339844)"/>
<path d="M0 0 C17.23743271 -0.09032473 34.4746632 -0.16399607 51.71226692 -0.20724869 C59.71614179 -0.22786621 67.71985909 -0.25597116 75.72363281 -0.30175781 C82.70045162 -0.34165058 89.6771563 -0.36743871 96.65408599 -0.37635398 C100.34772171 -0.38156466 104.04103094 -0.39379429 107.73456192 -0.42292023 C111.85980915 -0.4551861 115.98449026 -0.45595786 120.10986328 -0.45410156 C121.94297813 -0.47567322 121.94297813 -0.47567322 123.81312561 -0.49768066 C130.18437852 -0.4666043 134.17417031 -0.32733655 139 4 C139.598125 4.515625 140.19625 5.03125 140.8125 5.5625 C143.30891607 8.58447735 143.12374378 11.71789843 143.12025452 15.44792175 C143.12231651 17.14535271 143.12231651 17.14535271 143.12442017 18.8770752 C143.12082489 20.11928833 143.11722961 21.36150146 143.11352539 22.64135742 C143.11367142 23.94877396 143.11381744 25.25619049 143.1139679 26.60322571 C143.11425515 30.18972424 143.10837007 33.77618942 143.10139394 37.3626802 C143.09514839 41.1103001 143.09455565 44.85792074 143.09336853 48.60554504 C143.09025876 55.70281237 143.08205014 62.80006431 143.07201904 69.89732486 C143.06084691 77.97704511 143.05534468 86.05676609 143.05032361 94.13649213 C143.03986724 110.75767185 143.02152615 127.37883038 143 144 C134.42 144 125.84 144 117 144 C116.67 111.66 116.34 79.32 116 46 C77.39 84.61 38.78 123.22 -1 163 C-4.41085539 161.29457231 -6.07508103 160.1809007 -8.671875 157.59375 C-9.33574219 156.93246094 -9.99960937 156.27117187 -10.68359375 155.58984375 C-11.36550781 154.90019531 -12.04742188 154.21054687 -12.75 153.5 C-13.44738281 152.81035156 -14.14476562 152.12070312 -14.86328125 151.41015625 C-15.85134766 150.41822266 -15.85134766 150.41822266 -16.859375 149.40625 C-17.46233398 148.80103516 -18.06529297 148.19582031 -18.68652344 147.57226562 C-20 146 -20 146 -20 144 C-18.52383423 142.54260254 -18.52383423 142.54260254 -16.48681641 140.85351562 C-12.19310159 137.20010299 -8.18972875 133.33471252 -4.2109375 129.34375 C-3.50401764 128.63778687 -2.79709778 127.93182373 -2.0687561 127.20446777 C-0.58692706 125.72331418 0.89366025 124.24091732 2.37304688 122.75732422 C4.62257854 120.50242724 6.87741132 118.2529307 9.1328125 116.00390625 C10.58104995 114.55500806 12.0289772 113.10579974 13.4765625 111.65625 C14.14233307 110.99250366 14.80810364 110.32875732 15.49404907 109.64489746 C19.12403198 105.99687844 22.53503165 102.27788276 25.75668335 98.26208496 C26.37212509 97.63735291 26.37212509 97.63735291 27 97 C27.66 97 28.32 97 29 97 C29 96.34 29 95.68 29 95 C29.66 95 30.32 95 31 95 C31.20625 94.443125 31.4125 93.88625 31.625 93.3125 C33.14471637 90.75661338 34.96678035 89.31565039 37.28515625 87.49609375 C39.93077306 85.18795881 42.07600548 82.48650031 44.2890625 79.76953125 C46 78 46 78 48.1484375 76.94921875 C50.35934352 76.08854735 50.35934352 76.08854735 51 73 C51.66 73 52.32 73 53 73 C53.24579803 72.42888489 53.49159607 71.85776978 53.74484253 71.26934814 C55.21347247 68.6140378 56.93004566 66.8300145 59.08251953 64.69042969 C59.93499268 63.83819824 60.78746582 62.9859668 61.66577148 62.10791016 C62.56239502 61.22151855 63.45901855 60.33512695 64.3828125 59.421875 C65.20644287 58.60025879 66.03007324 57.77864258 66.87866211 56.93212891 C69.95531744 53.86593359 73.04068415 50.80848941 76.125 47.75 C83.01375 40.9025 89.9025 34.055 97 27 C64.99 26.67 32.98 26.34 0 26 C0 17.42 0 8.84 0 0 Z " fill="#FEFEFE" transform="translate(730,152)"/>
<path d="M0 0 C6 6 12 12 18 18 C12.79823852 24.30120599 7.09739715 30.03749296 1.31298828 35.80053711 C0.2380103 36.87523258 -0.83674666 37.95014917 -1.91130066 39.02526855 C-4.81151124 41.9257646 -7.71478209 44.82317946 -10.6186347 47.72002864 C-13.65935012 50.75446857 -16.69721065 53.79176394 -19.73538208 56.82875061 C-25.4811883 62.57145584 -31.22953758 68.31160843 -36.97881711 74.05083615 C-44.75321299 81.81193605 -52.52364971 89.57699774 -60.29431534 97.34183216 C-72.52632105 109.56445112 -84.76358685 121.78178978 -97 134 C-64.99 134.33 -32.98 134.66 0 135 C0 143.58 0 152.16 0 161 C-17.49820017 161.09032226 -34.99620116 161.16399464 -52.49456978 161.20724869 C-60.61951167 161.22786682 -68.74429836 161.25597297 -76.86914062 161.30175781 C-83.95143484 161.34164867 -91.03361664 161.36743826 -98.11602008 161.37635398 C-101.86554499 161.38156498 -105.61474832 161.39379668 -109.36417007 161.42292023 C-113.55168117 161.45518227 -117.73863453 161.45595798 -121.92626953 161.45410156 C-123.16704758 161.46848267 -124.40782562 161.48286377 -125.686203 161.49768066 C-136.39029612 161.44623838 -136.39029612 161.44623838 -141 157 C-146.36265852 151.45329518 -145.53755045 145.08856515 -145.45410156 137.83447266 C-145.45297226 136.49370355 -145.45360856 135.15293198 -145.45587158 133.81216431 C-145.45701647 130.18431771 -145.43354442 126.55700308 -145.40557575 122.9292798 C-145.38052411 119.1336568 -145.37821715 115.3380208 -145.37347412 111.54232788 C-145.36105534 104.36005226 -145.32824879 97.17802099 -145.28807616 89.99585283 C-145.24332412 81.81694377 -145.22136281 73.63802288 -145.20129442 65.45902181 C-145.15951497 48.6391824 -145.08617658 31.81967944 -145 15 C-136.42 15 -127.84 15 -119 15 C-118.67 48.99 -118.34 82.98 -118 118 C-79.06 79.06 -40.12 40.12 0 0 Z " fill="#FEFEFE" transform="translate(295,706)"/>
<path d="M0 0 C7.55251069 2.10483234 14.79564351 4.75312122 22.0625 7.6875 C23.16086182 8.13029297 24.25922363 8.57308594 25.39086914 9.02929688 C55.18592708 21.15405148 84.1805232 36.91669444 107.83984375 58.99609375 C109.85896429 60.86916579 111.94163063 62.61936841 114.0625 64.375 C119.02285256 68.70530778 122.99896903 73.79357675 127 79 C127.59683594 79.76957031 128.19367188 80.53914063 128.80859375 81.33203125 C138.20169727 94.06586905 144.19297545 107.72091486 148 123 C148.17813232 123.609646 148.35626465 124.21929199 148.53979492 124.84741211 C153.31256959 147.17184409 147.36224335 171.76358697 135.5625 190.8125 C129.75004311 199.51210725 123.12572921 207.35105291 116 215 C115.38640625 215.66773438 114.7728125 216.33546875 114.140625 217.0234375 C108.0344475 223.41665753 101.04056445 228.69084543 94 234 C93.16057861 234.63856934 93.16057861 234.63856934 92.30419922 235.29003906 C77.66841436 246.35664789 61.55641248 255.16232764 45 263 C44.25202148 263.35803711 43.50404297 263.71607422 42.73339844 264.08496094 C32.82060701 268.80202595 22.79023497 272.96641088 12.4375 276.625 C11.44355225 276.98013672 10.44960449 277.33527344 9.42553711 277.70117188 C8.03733765 278.17780273 8.03733765 278.17780273 6.62109375 278.6640625 C5.8005249 278.94717285 4.97995605 279.2302832 4.13452148 279.52197266 C2 280 2 280 -1 279 C-2.07495117 276.89868164 -2.07495117 276.89868164 -3.04296875 274.16015625 C-3.39423828 273.17982422 -3.74550781 272.19949219 -4.10742188 271.18945312 C-4.46384766 270.15755859 -4.82027344 269.12566406 -5.1875 268.0625 C-5.73954102 266.52045898 -5.73954102 266.52045898 -6.30273438 264.94726562 C-9 257.32586387 -9 257.32586387 -9 255 C-8.21689453 254.72438232 -7.43378906 254.44876465 -6.62695312 254.16479492 C24.18645373 243.25733457 55.56348703 231.12841431 81 210 C81.52062012 209.57654297 82.04124023 209.15308594 82.57763672 208.71679688 C101.6124403 193.23047731 119.47657991 174.37480611 123 149 C124.38614183 128.29876716 117.92332423 109.59101571 104.45800781 93.65722656 C74.45125665 59.55042366 32.87928239 40.50143341 -9 25 C-7.69233076 21.01922912 -6.37806177 17.04066885 -5.0625 13.0625 C-4.50272461 11.35803711 -4.50272461 11.35803711 -3.93164062 9.61914062 C-3.57392578 8.53955078 -3.21621094 7.45996094 -2.84765625 6.34765625 C-2.51773682 5.34742432 -2.18781738 4.34719238 -1.84790039 3.31665039 C-1 1 -1 1 0 0 Z " fill="#FDFDFE" transform="translate(717,363)"/>
<path d="M0 0 C2.97 8.58 5.94 17.16 9 26 C4.936875 27.546875 0.87375 29.09375 -3.3125 30.6875 C-34.06754867 42.65596321 -62.86518882 57.15812514 -87 80 C-87.8559375 80.80308594 -88.711875 81.60617187 -89.59375 82.43359375 C-104.41760159 96.74396856 -115.73855245 115.95010199 -116.5 136.9375 C-115.5983224 162.73711397 -100.84650539 182.19705318 -82.9453125 199.3984375 C-59.55804071 221.16400644 -29.29756752 235.74830058 0.27539062 246.93188477 C3.54673886 248.21433535 6.77035942 249.61586832 10 251 C7.36 258.92 4.72 266.84 2 275 C-3.17343937 274.26093723 -6.40423932 273.66208148 -11.02734375 271.77734375 C-12.14141602 271.32528564 -13.25548828 270.87322754 -14.40332031 270.4074707 C-15.56959961 269.92238037 -16.73587891 269.43729004 -17.9375 268.9375 C-19.14374023 268.44016357 -20.34998047 267.94282715 -21.59277344 267.43041992 C-30.62249494 263.6664199 -39.36270517 259.58168795 -48 255 C-49.76150391 254.12021484 -49.76150391 254.12021484 -51.55859375 253.22265625 C-66.60291402 245.63443201 -81.3064808 236.08913388 -94 225 C-94.77601563 224.33226562 -95.55203125 223.66453125 -96.3515625 222.9765625 C-98.94582539 220.69525831 -101.47992096 218.36303064 -104 216 C-104.5043457 215.52965332 -105.00869141 215.05930664 -105.52832031 214.57470703 C-124.98085656 196.28837579 -141.30744573 172.04865104 -142.23828125 144.5078125 C-142.64726547 121.13335591 -137.7040631 101.2416233 -124 82 C-123.30648437 81.01 -122.61296875 80.02 -121.8984375 79 C-104.43537615 55.17080591 -80.64245293 38.00867329 -54.92919922 24.05273438 C-53.12236601 23.06677325 -51.32823695 22.05763075 -49.53515625 21.046875 C-41.62889491 16.6713063 -33.5164012 12.89927966 -25.25 9.25 C-24.20851807 8.78996582 -23.16703613 8.32993164 -22.09399414 7.85595703 C-4.0510502 0 -4.0510502 0 0 0 Z " fill="#FDFDFE" transform="translate(299,366)"/>
<path d="M0 0 C337.92 0 675.84 0 1024 0 C1024 0.33 1024 0.66 1024 1 C1023.11584891 1.00040018 1022.23169782 1.00080037 1021.32075427 1.00121268 C933.73916522 1.04095026 846.15757456 1.08175929 732.68208313 1.15898132 C731.2314686 1.15998695 729.78085407 1.16099257 728.33023954 1.16199819 C697.88325397 1.18311852 667.43626886 1.2048556 636.98928424 1.22730538 C621.69536519 1.23858154 606.40144606 1.24973915 591.10752684 1.26078469 C588.80045825 1.26245158 586.49338966 1.26412186 584.18632107 1.26579228 C548.64944369 1.29149271 513.11256688 1.31464659 477.57568359 1.33044434 C476.42906865 1.33095413 476.42906865 1.33095413 475.25928976 1.33147423 C462.93428517 1.3369386 450.6092805 1.34218978 438.2842758 1.34741267 C402.79603682 1.36245455 367.30780174 1.37906592 331.81956959 1.40612316 C330.72550591 1.40695615 330.72550591 1.40695615 329.60933993 1.40780597 C313.59998763 1.42002343 297.59063609 1.43305213 281.58128507 1.44684957 C275.14022236 1.45238641 268.69915954 1.4578064 262.25809669 1.46318626 C261.55313872 1.46377789 260.84818075 1.46436952 260.12186041 1.46497908 C237.38640752 1.48400146 214.65096281 1.49350201 191.91550277 1.49803595 C168.38814816 1.50277243 144.86082806 1.51803565 121.33348688 1.54566566 C107.75677417 1.56127697 94.18011669 1.56844177 80.60339549 1.56376929 C71.54969853 1.56146821 62.49605401 1.56991465 53.44237357 1.58732411 C48.2737508 1.59694861 43.10524388 1.60168828 37.93661615 1.59339563 C33.24314774 1.58595672 28.5499085 1.59207583 23.85646811 1.60944067 C22.16084564 1.61326157 20.46520272 1.6119577 18.76958958 1.60515601 C16.48159487 1.59669407 14.19439976 1.60642883 11.90645331 1.62099248 C10.6353672 1.62177238 9.3642811 1.62255229 8.05467723 1.62335582 C5.0815606 1.79002283 5.0815606 1.79002283 3.09203464 3.09203464 C1.41233956 6.0267401 1.62305676 8.54209643 1.62099248 11.90645331 C1.6164638 12.61790901 1.61193511 13.32936471 1.60726919 14.06237968 C1.59565726 16.46951965 1.60558327 18.87610206 1.61523914 21.28324413 C1.61131525 23.02457508 1.60607593 24.76590347 1.59963337 26.50722691 C1.58565803 31.32815547 1.5905274 36.1489147 1.59826221 40.96985065 C1.60338159 46.20099193 1.5911897 51.4320963 1.58113068 56.66322643 C1.56589239 65.84321662 1.56184883 75.02315972 1.56500816 84.20316124 C1.56965592 97.85360347 1.55720921 111.50399209 1.54117843 125.15442378 C1.51470392 148.1135633 1.50219246 171.07268372 1.49761391 194.03183556 C1.49303621 216.77393062 1.48227238 239.516009 1.46318626 262.25809669 C1.46259669 262.96396368 1.46200712 263.66983067 1.46139968 264.39708756 C1.45601169 270.84394467 1.45054727 277.29080171 1.44499113 283.73765867 C1.43117916 299.76496165 1.41832595 315.79226531 1.40612316 331.81956959 C1.40556666 332.54947717 1.40501016 333.27938476 1.40443679 334.03141075 C1.37743938 369.55096628 1.36148745 405.07052563 1.34643555 440.59008789 C1.34120503 452.91861984 1.33592571 465.24715176 1.33044434 477.57568359 C1.33010444 478.34028382 1.32976454 479.10488404 1.32941434 479.89265397 C1.31355109 515.42644159 1.28984944 550.96022273 1.26412141 586.49400442 C1.2624516 588.80043403 1.26078517 591.10686364 1.25911942 593.41329326 C1.24807519 608.69791901 1.23689577 623.98254466 1.2256258 639.26717024 C1.2032019 669.68067119 1.18157247 700.09417268 1.16048871 730.50767458 C1.15948461 731.9560968 1.15847995 733.40451903 1.15747473 734.85294125 C1.09811936 820.38697768 1.05478366 905.92102216 1 1024 C0.67 1024 0.34 1024 0 1024 C0 686.08 0 348.16 0 0 Z " fill="#000003" transform="translate(0,0)"/>
<path d="M0 0 C0 32.67 0 65.34 0 99 C8.58 99 17.16 99 26 99 C26 99.33 26 99.66 26 100 C21.52084672 100.02886338 17.04171709 100.04675187 12.5625 100.0625 C11.28310547 100.07087891 10.00371094 100.07925781 8.68554688 100.08789062 C7.47060547 100.09111328 6.25566406 100.09433594 5.00390625 100.09765625 C3.87799072 100.10289307 2.7520752 100.10812988 1.59204102 100.11352539 C-1 100 -1 100 -2 99 C-2.12529332 96.07878904 -2.18609345 93.18017898 -2.20532227 90.25756836 C-2.22037135 88.85976938 -2.22037135 88.85976938 -2.23572445 87.43373203 C-2.26723064 84.40246164 -2.29193034 81.37117823 -2.31640625 78.33984375 C-2.33479852 76.47432008 -2.35363458 74.60880073 -2.3729248 72.74328613 C-2.44150591 65.80807529 -2.50147308 58.87278143 -2.5625 51.9375 C-2.7790625 28.7034375 -2.7790625 28.7034375 -3 5 C-40.95 42.95 -78.9 80.9 -118 120 C-121.2917475 118.35412625 -122.79705157 117.4470074 -125.234375 114.9609375 C-125.80800781 114.38085938 -126.38164063 113.80078125 -126.97265625 113.203125 C-127.55917969 112.59984375 -128.14570312 111.9965625 -128.75 111.375 C-129.35199219 110.76398438 -129.95398438 110.15296875 -130.57421875 109.5234375 C-132.05405305 108.02011376 -133.52764676 106.51065144 -135 105 C-134.505 104.01 -134.505 104.01 -134 103 C-129.38 107.62 -124.76 112.24 -120 117 C-116.13429636 115.06714818 -114.16686117 113.41184925 -111.15986633 110.39364624 C-110.68754568 109.92232887 -110.21522502 109.4510115 -109.72859162 108.96541178 C-108.14931228 107.38708403 -106.57728783 105.80172473 -105.00512695 104.21630859 C-103.87360625 103.08258645 -102.74163697 101.94931186 -101.60925293 100.81645203 C-99.1732743 98.37754096 -96.74048493 95.93550774 -94.31011391 93.49100876 C-90.47099595 89.62964036 -86.62481659 85.77535831 -82.77763367 81.92202759 C-76.69777543 75.83078981 -70.62261022 69.73489598 -64.54946727 63.63696349 C-53.66185624 52.7049951 -42.76861313 41.77864552 -31.870197 30.85744917 C-28.04266566 27.02148525 -24.21796087 23.18273093 -20.3954674 19.34174705 C-18.02384757 16.95952449 -15.65023126 14.57929879 -13.27610016 12.19957924 C-12.17102828 11.09102139 -11.06682974 9.98159221 -9.96354485 8.87125587 C-8.46435344 7.36268982 -6.96217314 5.85716612 -5.45918274 4.35238647 C-4.61725026 3.50693457 -3.77531778 2.66148266 -2.9078722 1.790411 C-1 0 -1 0 0 0 Z " fill="#2238D7" transform="translate(847,197)"/>
<path d="M0 0 C0.99 0.33 1.98 0.66 3 1 C2.67 23.44 2.34 45.88 2 69 C0 67 0 67 -0.24050903 64.21591187 C-0.23606781 63.03010529 -0.23162659 61.84429871 -0.22705078 60.62255859 C-0.22748886 59.64188667 -0.22748886 59.64188667 -0.22793579 58.6414032 C-0.22654065 56.47694704 -0.2109712 54.31283364 -0.1953125 52.1484375 C-0.19158302 50.64914132 -0.18873574 49.1498427 -0.18673706 47.65054321 C-0.17909548 43.70163257 -0.1594426 39.75286871 -0.1373291 35.80401611 C-0.1168819 31.77561428 -0.10773776 27.74718876 -0.09765625 23.71875 C-0.07619711 15.81243259 -0.04205495 7.90623455 0 0 Z " fill="#4257DB" transform="translate(371,500)"/>
<path d="M0 0 C1.38350251 4.15050752 -0.01841177 6.00607082 -1.80859375 9.8359375 C-3.19411995 12.3525982 -4.78148442 14.17764792 -7 16 C-7.66 15.67 -8.32 15.34 -9 15 C-8.60167969 14.41992188 -8.20335937 13.83984375 -7.79296875 13.2421875 C-4.87248393 8.9360712 -2.18115554 4.725837 0 0 Z " fill="#273DD7" transform="translate(677,662)"/>
<path d="M0 0 C0 0.99 0 1.98 0 3 C-2.81534937 5.65894107 -5.12793601 7.42636089 -9 8 C-6.14723863 5.06799526 -3.34920216 2.35684596 0 0 Z " fill="#253AD8" transform="translate(811,596)"/>
<path d="M0 0 C0.66 0.33 1.32 0.66 2 1 C2 1.99 2 2.98 2 4 C2.99 4.33 3.98 4.66 5 5 C4.01 5.495 4.01 5.495 3 6 C0.5249829 4.88568235 -1.67883419 3.41849022 -4 2 C-2.125 0.9375 -2.125 0.9375 0 0 Z " fill="#263CD7" transform="translate(260,592)"/>
</svg>
